<?xml version="1.0" encoding="UTF-8"?>
<svg width="32px" height="32px" viewBox="0 0 32 32" version="1.1" xmlns="http://www.w3.org/2000/svg" xmlns:xlink="http://www.w3.org/1999/xlink">
    <title>Group 6</title>
    <g id="Page-1" stroke="none" stroke-width="1" fill="none" fill-rule="evenodd">
        <g id="Group-6">
            <rect id="Rectangle" fill="#3011F8" x="0" y="0" width="32" height="32"></rect>
            <path d="M16.5,27 C22.4117647,27 26.3529412,22.7647059 26.3529412,16.4705882 L26.3529412,15.1470588 L15.6176471,15.1470588 L15.6176471,18.6764706 L22.2647059,18.6764706 C21.5294118,21.5588235 19.2058824,23.4705882 16.5,23.4705882 C12.5882353,23.4705882 9.94117647,20.6470588 9.94117647,16.4705882 C9.94117647,12.3235294 12.5882353,9.52941176 16.5,9.52941176 C18.4411765,9.52941176 20.4411765,10.7647059 21.5,12.6176471 L25.1764706,11.7058824 C23.4117647,8.29411765 19.9411765,6 16.5,6 C10.2058824,6 6,10.2058824 6,16.4705882 C6,22.7647059 10.2058824,27 16.5,27 Z" id="G" fill="#FFFFFF" fill-rule="nonzero"></path>
        </g>
    </g>
</svg>