<?xml version="1.0" encoding="UTF-8"?>
<svg width="949px" height="307px" viewBox="0 0 949 307" version="1.1" xmlns="http://www.w3.org/2000/svg" xmlns:xlink="http://www.w3.org/1999/xlink">
    <title>Group</title>
    <g id="Page-1" stroke="none" stroke-width="1" fill="none" fill-rule="evenodd">
        <g id="Group" transform="translate(0.253982, -0.002815)" fill="#000000" fill-rule="nonzero">
            <path d="M919.246018,83.0028146 C924.206853,83.0028146 928.938249,81.7440024 933.440207,79.2263786 C937.942166,76.7087545 941.451956,73.1989634 943.969581,68.6970052 C946.487206,64.195047 947.746018,59.46365 947.746018,54.5028146 C947.746018,49.5171749 946.462401,44.7485717 943.895168,40.1970052 C941.327936,35.6454386 937.799541,32.1418485 933.309987,29.686235 C928.82043,27.2306214 924.13244,26.0028146 919.246018,26.0028146 C914.359593,26.0028146 909.671604,27.2306214 905.182049,29.686235 C900.692492,32.1418485 897.164098,35.6454386 894.596865,40.1970052 C892.029633,44.7485717 890.746018,49.5171749 890.746018,54.5028146 C890.746018,59.46365 892.004828,64.195047 894.522453,68.6970052 C897.040078,73.1989634 900.549868,76.7087545 905.051826,79.2263786 C909.553784,81.7440024 914.285181,83.0028146 919.246018,83.0028146 Z M918.746018,77.0028146 C914.756857,77.0028146 910.942223,75.9868254 907.302116,73.9548471 C903.662006,71.9228686 900.825962,69.0868254 898.793984,65.446717 C896.762007,61.8066085 895.746018,57.9919743 895.746018,54.0028146 C895.746018,49.9637902 896.780705,46.1055246 898.850083,42.4280178 C900.919459,38.7505111 903.767968,35.9269338 907.39561,33.9572861 C911.023253,31.9876384 914.806721,31.0028146 918.746018,31.0028146 C922.685313,31.0028146 926.468781,31.9876384 930.096423,33.9572861 C933.724066,35.9269338 936.572575,38.7567441 938.641953,42.446717 C940.711329,46.1366899 941.746018,49.9887223 941.746018,54.0028146 C941.746018,57.9919743 940.730027,61.8066085 938.698049,65.446717 C936.666072,69.0868254 933.830028,71.9228686 930.18992,73.9548471 C926.54981,75.9868254 922.735176,77.0028146 918.746018,77.0028146 Z M919.1983,70.0028146 C922.235644,70.0028146 924.849752,69.1640038 927.040624,67.4863827 C929.231494,65.8087613 930.799958,63.392486 931.746018,60.2375564 L931.746018,60.2375564 L925.73357,58.2093874 C925.061371,60.5129867 924.115311,62.159309 922.895396,63.1483545 C921.675478,64.1373998 920.231494,64.6319226 918.563445,64.6319226 C916.571743,64.6319226 914.86635,63.7680728 913.447263,62.0403733 C912.028176,60.3126738 911.318632,57.6209679 911.318632,53.9652559 C911.318632,50.3095437 912.040623,47.6240977 913.484607,45.9089179 C914.928589,44.1937379 916.783362,43.3361479 919.048923,43.3361479 C920.567593,43.3361479 921.880871,43.7492935 922.988755,44.5755845 C924.09664,45.4018756 924.999129,46.7289491 925.696225,48.5568052 L925.696225,48.5568052 L931.746018,47.1295752 C930.600789,43.9746456 929.001204,41.6647864 926.947262,40.1999977 C924.89332,38.735209 922.33523,38.0028146 919.272989,38.0028146 C916.484606,38.0028146 913.963858,38.6287927 911.710747,39.8807489 C909.457636,41.132705 907.73357,43.0231589 906.538549,45.5521104 C905.343528,48.0810618 904.746018,50.9605611 904.746018,54.190608 C904.746018,59.1233153 906.090416,62.9918599 908.779213,65.7962418 C911.46801,68.6006235 914.941039,70.0028146 919.1983,70.0028146 Z" id="©-copy"></path>
            <path d="M106.628625,242.096702 C163.534057,242.096702 204.417571,205.964515 204.417571,146.517676 L204.417571,118.230703 L109.943505,118.230703 L109.943505,153.81041 L159.003722,153.81041 C158.340746,182.318375 139.003949,200.439716 106.849617,200.439716 C70.7174301,200.439716 47.7342653,173.478696 47.7342653,125.633934 C47.7342653,78.1206611 71.490902,51.2701368 106.407633,51.2701368 C131.26923,51.2701368 148.285611,64.308663 154.473386,85.634388 L202.318148,85.634388 C195.909381,40.9940103 156.57281,9.61315066 105.634161,9.61315066 C45.8558336,9.61315066 0,52.7065846 0,126.075918 C0,197.677316 43.093434,242.096702 106.628625,242.096702 Z M268.093361,239.002815 L268.093361,142.53982 C268.093361,121.656079 283.562799,107.070609 304.44654,107.070609 C310.965803,107.070609 319.915978,108.286065 324.225321,109.612017 L324.225321,68.2865185 C320.026474,67.5130466 314.059691,66.8500707 309.41886,66.8500707 C290.41355,66.8500707 274.72312,77.8996691 268.535345,98.7834102 L266.767409,98.7834102 L266.767409,69.2809823 L221.90604,69.2809823 L221.90604,239.002815 L268.093361,239.002815 Z M353.9776,47.0712894 C367.789598,47.0712894 379.170684,36.5741709 379.170684,23.5356447 C379.170684,10.6076145 367.789598,0 353.9776,0 C340.055106,0 328.674019,10.6076145 328.674019,23.5356447 C328.674019,36.5741709 340.055106,47.0712894 353.9776,47.0712894 Z M376.960765,239.002815 L376.960765,69.2809823 L330.773443,69.2809823 L330.773443,239.002815 L376.960765,239.002815 Z M443.397229,239.002815 L443.397229,140.771884 C443.507725,118.451695 456.767243,105.523665 476.10404,105.523665 C495.028687,105.523665 506.372537,117.869536 506.490307,138.379927 L506.490436,239.002815 L552.67815,239.002815 L552.67815,130.937742 C552.788253,91.2696832 529.584097,67.0710626 494.225382,67.0710626 C469.032297,67.0710626 450.910956,79.4466129 443.286733,99.1148981 L441.297805,99.1148981 L441.297805,69.2809823 L397.209907,69.2809823 L397.209907,239.002815 L443.397229,239.002815 Z M648.617882,306.184373 C696.904628,306.184373 731.047887,284.195672 731.047887,240.77075 L731.047887,69.2809823 L685.192053,69.2809823 L685.192053,97.7889463 L683.424117,97.7889463 C677.125846,84.0874442 663.424344,67.0710626 634.91638,67.0710626 C597.347746,67.0710626 565.966886,95.6895226 565.966886,153.147435 C565.966886,209.610883 596.574274,236.571903 635.026876,236.571903 C662.319384,236.571903 677.236342,222.759905 683.424117,208.837411 L685.413045,208.837411 L685.413045,240.107774 C685.413045,263.643419 671.048567,272.70409 649.612346,272.70409 C631.159517,272.70409 618.341983,266.626811 615.800575,252.925309 L570.276229,252.925309 C572.928133,285.190136 601.878081,306.184373 648.617882,306.184373 Z M649.50185,201.765668 C625.966206,201.765668 613.259167,183.091846 613.259167,153.589419 C613.259167,124.418479 625.745214,104.087217 649.50185,104.087217 C672.595511,104.087217 685.634037,123.534511 685.634037,153.589419 C685.634037,183.754822 672.374519,201.765668 649.50185,201.765668 Z M827.540533,242.317694 C878.921166,242.317694 910.854505,207.069475 910.854505,154.804874 C910.854505,102.208786 878.921166,67.0710626 827.540533,67.0710626 C776.270396,67.0710626 744.226561,102.208786 744.226561,154.804874 C744.226561,207.069475 776.270396,242.317694 827.540533,242.317694 Z M827.872021,206.406499 C803.6734,206.406499 791.187354,184.307302 791.187354,154.473386 C791.187354,124.749967 803.6734,102.429778 827.872021,102.429778 C851.518162,102.429778 863.893712,124.749967 863.893712,154.473386 C863.893712,184.307302 851.518162,206.406499 827.872021,206.406499 Z" id="Gringo"></path>
        </g>
    </g>
</svg>