<?xml version="1.0" encoding="UTF-8"?>
<svg width="256px" height="256px" viewBox="0 0 256 256" version="1.1" xmlns="http://www.w3.org/2000/svg" xmlns:xlink="http://www.w3.org/1999/xlink">
    <title>Group 6 Copy</title>
    <g id="Page-1" stroke="none" stroke-width="1" fill="none" fill-rule="evenodd">
        <g id="Group-6-Copy">
            <rect id="Rectangle" fill="#3011F8" x="0" y="0" width="256" height="256"></rect>
            <path d="M132,216 C179.294118,216 210.823529,182.117647 210.823529,131.764706 L210.823529,121.176471 L124.941176,121.176471 L124.941176,149.411765 L178.117647,149.411765 C172.235294,172.470588 153.647059,187.764706 132,187.764706 C100.705882,187.764706 79.5294118,165.176471 79.5294118,131.764706 C79.5294118,98.5882353 100.705882,76.2352941 132,76.2352941 C147.529412,76.2352941 163.529412,86.1176471 172,100.941176 L201.411765,93.6470588 C187.294118,66.3529412 159.529412,48 132,48 C81.6470588,48 48,81.6470588 48,131.764706 C48,182.117647 81.6470588,216 132,216 Z" id="G" fill="#FFFFFF" fill-rule="nonzero"></path>
        </g>
    </g>
</svg>